<svg xmlns="http://www.w3.org/2000/svg" width="20.123" height="15.651" viewBox="0 0 20.123 15.651"><defs><style>.a{fill:#8f8f8f;}</style></defs><path class="a" d="M18.943,2.252c-1.914.109-5.72.5-8.069,1.942a.537.537,0,0,0-.254.46V17.366a.553.553,0,0,0,.813.471,21.308,21.308,0,0,1,7.64-1.639,1.09,1.09,0,0,0,1.049-1.071V3.324a1.1,1.1,0,0,0-1.18-1.073ZM9.248,4.194C6.9,2.756,3.095,2.361,1.18,2.252A1.1,1.1,0,0,0,0,3.324v11.8A1.089,1.089,0,0,0,1.049,16.2a21.305,21.305,0,0,1,7.643,1.64.551.551,0,0,0,.811-.47V4.647A.526.526,0,0,0,9.248,4.194Z" transform="translate(0 -2.25)"/></svg>