<svg xmlns="http://www.w3.org/2000/svg" width="15.651" height="15.651" viewBox="0 0 15.651 15.651"><defs><style>.a{fill:#8f8f8f;}</style></defs><path class="a" d="M14.533,8.4H9.5V3.368A1.118,1.118,0,0,0,8.385,2.25H7.267A1.118,1.118,0,0,0,6.149,3.368V8.4H1.118A1.118,1.118,0,0,0,0,9.517v1.118a1.118,1.118,0,0,0,1.118,1.118H6.149v5.031A1.118,1.118,0,0,0,7.267,17.9H8.385A1.118,1.118,0,0,0,9.5,16.783V11.752h5.031a1.118,1.118,0,0,0,1.118-1.118V9.517A1.118,1.118,0,0,0,14.533,8.4Z" transform="translate(0 -2.25)"/></svg>