<svg xmlns="http://www.w3.org/2000/svg" width="22.953" height="23.579" viewBox="0 0 22.953 23.579"><defs><style>.a{fill:#6e6e6e;}</style></defs><path class="a" d="M27.184,26.365,20.8,19.748a9.534,9.534,0,0,0,2-5.862,9.272,9.272,0,0,0-9.151-9.392,9.278,9.278,0,0,0-9.151,9.4,9.272,9.272,0,0,0,9.151,9.392,8.973,8.973,0,0,0,5.768-2.1l6.342,6.575a.966.966,0,0,0,.711.313.955.955,0,0,0,.675-.276A1.035,1.035,0,0,0,27.184,26.365Zm-13.533-5.1A7.046,7.046,0,0,1,8.571,19.1a7.507,7.507,0,0,1,0-10.424,7.054,7.054,0,0,1,10.162,0,7.507,7.507,0,0,1,0,10.424A7.046,7.046,0,0,1,13.651,21.264Z" transform="translate(-4.5 -4.493)"/></svg>